<svg width="214" height="58" viewBox="0 0 214 58" fill="none" xmlns="http://www.w3.org/2000/svg">
<g clip-path="url(#clip0_77_667)">
<path d="M8.87204 52.819C8.7553 53.4011 8.52182 53.9056 8.1327 54.3519C7.74357 54.7982 7.27662 55.1475 6.69293 55.3998C6.10924 55.652 5.48664 55.7685 4.78621 55.7685C3.96904 55.7685 3.24916 55.5938 2.62656 55.2639C2.00396 54.9341 1.51755 54.4684 1.14788 53.8668C0.797665 53.2653 0.622559 52.5861 0.622559 51.81C0.622559 51.0144 0.797665 50.3352 1.14788 49.7337C1.49809 49.1321 1.9845 48.6858 2.62656 48.3365C3.24916 48.0067 3.96904 47.832 4.78621 47.832C5.48664 47.832 6.1287 47.9485 6.69293 48.2007C7.27662 48.453 7.74357 48.8023 8.1327 49.2292C8.52182 49.6561 8.7553 50.18 8.87204 50.7621H8.07433C7.91868 50.083 7.54901 49.5202 6.94586 49.1127C6.34271 48.7052 5.62283 48.4918 4.78621 48.4918C4.10524 48.4918 3.50209 48.6276 2.99623 48.8993C2.49036 49.1709 2.10124 49.559 1.80939 50.0441C1.53701 50.5293 1.38135 51.1114 1.38135 51.7711C1.38135 52.4309 1.51755 53.013 1.80939 53.4981C2.08178 53.9833 2.49036 54.3713 2.99623 54.643C3.50209 54.9147 4.10524 55.0505 4.78621 55.0505C5.64229 55.0505 6.36217 54.8565 6.96532 54.449C7.56846 54.0415 7.93813 53.4981 8.07433 52.7996H8.87204V52.819Z" fill="#2F2D31"/>
<path d="M11.1484 45.1348H11.8878V55.5938H11.1484V45.1348ZM15.1564 47.832C15.8569 47.832 16.46 47.9678 16.9464 48.2589C17.4328 48.5305 17.8025 48.9574 18.0749 49.4814C18.3278 50.0247 18.464 50.665 18.464 51.4412V55.5938H17.7247V51.5771C17.7247 50.5486 17.4912 49.7724 17.0242 49.2679C16.5573 48.744 15.8763 48.4917 14.9813 48.4917C14.3587 48.4917 13.814 48.6276 13.347 48.9186C12.88 49.1903 12.5104 49.5978 12.2574 50.1023C12.0045 50.6068 11.8683 51.189 11.8683 51.8487L11.4792 51.48C11.5181 50.7427 11.7127 50.1023 12.024 49.559C12.3353 49.0157 12.7633 48.5888 13.3081 48.2977C13.8723 47.9872 14.4755 47.832 15.1564 47.832Z" fill="#2F2D31"/>
<path d="M29.0285 51.7905C28.8145 52.5861 28.4838 53.2653 28.0557 53.8668C27.6277 54.4684 27.1218 54.9341 26.5381 55.2639C25.9545 55.5938 25.3124 55.7685 24.5925 55.7685C23.8532 55.7685 23.1917 55.5938 22.608 55.2639C22.0243 54.9341 21.5768 54.4684 21.2266 53.8668C20.8958 53.2653 20.7207 52.5861 20.7207 51.81C20.7207 51.0144 20.8958 50.3352 21.2266 49.7337C21.5573 49.1321 22.0243 48.6858 22.608 48.3365C23.1917 48.0067 23.8532 47.832 24.5925 47.832C25.2929 47.832 25.9545 48.0067 26.5381 48.3365C27.1218 48.6664 27.6277 49.1321 28.0557 49.7337C28.5032 50.3158 28.8145 51.0144 29.0285 51.7905ZM21.499 51.7905C21.499 52.4309 21.6351 52.9936 21.9075 53.4981C22.1799 53.9833 22.5496 54.3713 23.0165 54.6624C23.4835 54.9341 24.0088 55.0699 24.612 55.0699C25.2151 55.0699 25.7599 54.9341 26.2658 54.6624C26.7716 54.3907 27.2191 54.0027 27.6082 53.4981C27.9974 53.013 28.3281 52.4309 28.5811 51.7905C28.3087 51.1308 27.9974 50.5681 27.6082 50.083C27.2191 49.5978 26.7716 49.2097 26.2658 48.9381C25.7599 48.6664 25.2151 48.5306 24.612 48.5306C24.0088 48.5306 23.4835 48.6664 23.0165 48.9381C22.5496 49.2097 22.1799 49.5978 21.9075 50.083C21.6351 50.5681 21.499 51.1502 21.499 51.7905ZM28.62 55.5938L28.367 52.6832L28.6978 51.7905L28.367 50.9173L28.62 48.0067H29.3593L29.048 51.81L29.3593 55.6132H28.62V55.5938Z" fill="#2F2D31"/>
<path d="M31.7139 47.9871H32.4532L32.8618 50.4127V55.5937H32.1225V50.2769L31.7139 47.9871ZM37.1033 47.9871V48.7051C36.9671 48.6469 36.7725 48.6081 36.539 48.5693C36.3056 48.5305 36.0915 48.5305 35.8775 48.5305C35.2938 48.5305 34.7685 48.6663 34.3016 48.938C33.8346 49.2096 33.4844 49.5977 33.2315 50.1022C32.9785 50.6068 32.8423 51.1695 32.8423 51.8292L32.5505 51.3635C32.5505 50.8396 32.6283 50.3545 32.8034 49.9276C32.9591 49.5007 33.1925 49.132 33.5038 48.8215C33.8151 48.5111 34.1654 48.2588 34.5739 48.1036C34.9825 47.9289 35.4495 47.8513 35.9359 47.8513C36.1499 47.8513 36.3639 47.8707 36.5779 47.8901C36.8114 47.9095 36.9865 47.9483 37.1033 47.9871Z" fill="#2F2D31"/>
<path d="M39.3992 46.7065C39.2047 46.7065 39.049 46.6483 38.9128 46.5124C38.7766 46.3766 38.7183 46.2214 38.7183 46.0467C38.7183 45.8721 38.7766 45.7168 38.9128 45.581C39.049 45.4452 39.2047 45.387 39.3992 45.387C39.5938 45.387 39.7494 45.4452 39.8856 45.581C40.0218 45.7168 40.0802 45.8721 40.0802 46.0467C40.0802 46.2214 40.0218 46.3766 39.8856 46.5124C39.7494 46.6289 39.5938 46.7065 39.3992 46.7065ZM39.0296 47.9872L39.3992 48.0454L39.7689 47.9872V55.5937H39.0296V47.9872Z" fill="#2F2D31"/>
<path d="M41.5781 48.6664V48.2589L43.2903 48.0648L43.5627 46.0662H44.0296V48.0066H47.9209V48.6664H44.0296V53.0906C44.0296 53.828 44.2047 54.3325 44.5355 54.6235C44.8662 54.9146 45.3527 55.0698 46.0142 55.0698C46.4422 55.0698 46.8119 55.0116 47.1426 54.8952C47.4734 54.7788 47.7847 54.6235 48.096 54.3907V55.1475C47.9014 55.2833 47.5901 55.4191 47.1815 55.555C46.773 55.6908 46.3449 55.749 45.8974 55.749C45.2554 55.749 44.7495 55.6326 44.3798 55.3997C44.0102 55.1669 43.7378 54.8564 43.5627 54.4683C43.407 54.0802 43.3097 53.6533 43.3097 53.1682V48.6082H41.5781V48.6664Z" fill="#2F2D31"/>
<path d="M53.0378 55.3609L49.2827 48.0066H50.0999L53.7966 55.3609H53.0378ZM51.3645 57.9999C51.0338 57.9999 50.7419 57.9611 50.489 57.8835C50.2361 57.8059 49.9637 57.67 49.6913 57.4954V56.855C49.9637 57.0103 50.2166 57.1461 50.4695 57.2237C50.7225 57.3013 51.0143 57.3401 51.3451 57.3401C51.7537 57.3401 52.0844 57.2431 52.3568 57.0685C52.6292 56.8938 52.8627 56.6028 53.0572 56.2341L57.2209 48.026H58.0186L53.6409 56.564C53.4658 56.8938 53.2713 57.1655 53.0572 57.379C52.8432 57.5924 52.5903 57.767 52.3179 57.8641C52.0066 57.9417 51.6953 57.9999 51.3645 57.9999Z" fill="#2F2D31"/>
<path d="M177.286 49.0738V48.4141H183.629V49.0738H177.286ZM182.033 45.6392C181.314 45.6392 180.749 45.8139 180.341 46.1632C179.932 46.5124 179.738 47.0946 179.738 47.8902V55.5937H178.998V48.0842C178.998 47.5215 179.096 46.9976 179.29 46.5319C179.485 46.0661 179.796 45.6781 180.224 45.4064C180.652 45.1347 181.236 44.9795 181.956 44.9795C182.345 44.9795 182.676 45.0183 182.948 45.0959C183.24 45.1735 183.493 45.2512 183.726 45.3482V46.0661C183.454 45.9109 183.201 45.7945 182.909 45.7363C182.637 45.6781 182.345 45.6392 182.033 45.6392Z" fill="#2F2D31"/>
<path d="M188.59 55.7685C187.909 55.7685 187.306 55.6327 186.839 55.3416C186.353 55.0699 185.983 54.643 185.73 54.1191C185.477 53.5758 185.341 52.9354 185.341 52.1593V48.0067H186.08V52.004C186.08 53.0131 186.314 53.7892 186.761 54.3132C187.209 54.8371 187.87 55.1087 188.746 55.1087C189.349 55.1087 189.894 54.9729 190.341 54.6818C190.789 54.4102 191.158 54.0027 191.411 53.4982C191.664 52.9937 191.8 52.4115 191.8 51.7518L192.189 51.9846C192.151 52.7414 191.956 53.4012 191.645 53.9639C191.333 54.5266 190.905 54.9729 190.399 55.2834C189.855 55.6133 189.271 55.7685 188.59 55.7685ZM192.209 55.5939L191.8 53.1683V47.9873H192.54V53.2653L192.948 55.5939H192.209Z" fill="#2F2D31"/>
<path d="M195.108 47.9873H195.847L196.256 50.4128V55.5938H195.516V50.3158L195.108 47.9873ZM199.544 47.832C200.244 47.832 200.848 47.9679 201.334 48.2589C201.82 48.5306 202.19 48.9575 202.462 49.4814C202.715 50.0247 202.852 50.6651 202.852 51.4413V55.5938H202.112V51.5771C202.112 50.5487 201.879 49.7725 201.412 49.268C200.945 48.744 200.264 48.4918 199.369 48.4918C198.746 48.4918 198.201 48.6276 197.735 48.9187C197.268 49.1903 196.898 49.5978 196.645 50.1024C196.392 50.6069 196.256 51.189 196.256 51.8488L195.867 51.4801C195.906 50.7427 196.1 50.1024 196.411 49.559C196.723 49.0157 197.151 48.5888 197.696 48.2977C198.24 47.9873 198.863 47.832 199.544 47.832Z" fill="#2F2D31"/>
<path d="M213.416 51.7904C213.202 52.586 212.871 53.2651 212.443 53.8667C212.015 54.4682 211.51 54.9339 210.926 55.2638C210.342 55.5937 209.7 55.7683 208.98 55.7683C208.241 55.7683 207.579 55.5937 206.996 55.2638C206.412 54.9339 205.964 54.4682 205.614 53.8667C205.284 53.2651 205.108 52.586 205.108 51.8098C205.108 51.0142 205.284 50.335 205.614 49.7335C205.945 49.132 206.412 48.6857 206.996 48.3364C207.579 48.0065 208.241 47.8319 208.98 47.8319C209.681 47.8319 210.342 48.0065 210.926 48.3364C211.51 48.6663 212.015 49.132 212.443 49.7335C212.891 50.3156 213.202 51.0142 213.416 51.7904ZM205.887 51.7904C205.887 52.4307 206.023 52.9935 206.295 53.498C206.568 53.9831 206.937 54.3712 207.404 54.6623C207.871 54.9339 208.397 55.0697 209 55.0697C209.603 55.0697 210.148 54.9339 210.653 54.6623C211.159 54.3906 211.607 54.0025 211.996 53.498C212.385 53.0129 212.716 52.4307 212.969 51.7904C212.696 51.1306 212.385 50.5679 211.996 50.0828C211.607 49.5977 211.159 49.2096 210.653 48.9379C210.148 48.6663 209.603 48.5304 209 48.5304C208.397 48.5304 207.871 48.6663 207.404 48.9379C206.937 49.2096 206.568 49.5977 206.295 50.0828C206.023 50.5679 205.887 51.15 205.887 51.7904ZM213.008 55.5937L212.755 52.683L213.085 51.7904L212.794 50.9172L213.3 45.1541H214.019L213.436 51.8098L213.747 55.6131H213.008V55.5937Z" fill="#2F2D31"/>
<path d="M0 26.9916H5.83689C6.012 28.2917 6.55678 29.4366 7.47122 30.4262C8.38567 31.4158 9.59196 32.1726 11.1096 32.6965C12.6271 33.2398 14.3588 33.4921 16.3238 33.4921C19.2618 33.4921 21.5771 33.0458 23.2892 32.1338C25.0014 31.2218 25.8574 29.9799 25.8574 28.4275C25.8574 27.1468 25.371 26.196 24.3788 25.5557C23.3865 24.9153 21.616 24.4496 19.0283 24.1197L11.9851 23.2077C8.03546 22.6838 5.17538 21.7136 3.3854 20.2777C1.59542 18.8611 0.700427 16.8237 0.700427 14.1846C0.700427 12.186 1.30357 10.459 2.50986 9.00365C3.71616 7.54831 5.42831 6.42285 7.62687 5.60786C9.82544 4.81228 12.4131 4.40479 15.3705 4.40479C18.3084 4.40479 20.8961 4.83168 23.153 5.70489C25.4099 6.57809 27.2194 7.78116 28.5813 9.33352C29.9238 10.8859 30.6631 12.6905 30.7799 14.7862H24.943C24.8068 13.6219 24.3204 12.6323 23.4838 11.7979C22.6471 10.9635 21.5381 10.3037 20.1567 9.81864C18.7559 9.35293 17.1216 9.12007 15.2343 9.12007C12.5688 9.12007 10.4286 9.54697 8.83317 10.4202C7.23775 11.274 6.44004 12.477 6.44004 13.9712C6.44004 15.1355 6.90699 16.0281 7.86035 16.649C8.79425 17.27 10.448 17.7357 12.8023 18.0655L19.9427 19.0552C22.8806 19.4627 25.1959 20.006 26.8886 20.6851C28.5813 21.3643 29.8071 22.2763 30.527 23.4212C31.2468 24.566 31.6165 26.0408 31.6165 27.826C31.6165 29.9023 30.9745 31.7263 29.7098 33.2981C28.4257 34.8698 26.6357 36.0729 24.3398 36.9267C22.0245 37.7805 19.3396 38.2074 16.2655 38.2074C13.133 38.2074 10.3702 37.7417 7.97709 36.7909C5.58396 35.8595 3.6967 34.5399 2.29585 32.8712C0.875534 31.183 0.116738 29.2231 0 26.9916Z" fill="#2F2D31"/>
<path d="M53.1742 5.02588C55.6062 5.02588 57.727 5.45278 59.5169 6.32598C61.3069 7.19918 62.6883 8.40226 63.6611 9.95462C64.6339 11.507 65.1204 13.2922 65.1204 15.3103C65.1204 17.3283 64.6339 19.1329 63.6611 20.6659C62.6883 22.2183 61.3069 23.4213 59.5169 24.2945C57.727 25.1677 55.6257 25.5946 53.1742 25.5946H38.5041V20.6465H52.9602C54.9252 20.6465 56.4818 20.1614 57.5908 19.2106C58.6998 18.2597 59.264 16.9596 59.264 15.3103C59.264 13.6609 58.6998 12.3608 57.5908 11.41C56.4818 10.4591 54.9252 9.97402 52.9602 9.97402H39.0684L41.6366 7.12156V37.606H35.897V5.02588H53.1742Z" fill="#2F2D31"/>
<path d="M113.625 5.02588V35.0252L111.057 32.5414H135.649V37.5866H107.866V5.02588H113.625Z" fill="#2F2D31"/>
<path d="M140.008 37.5866V5.02588H145.747V32.7743L144.016 31.6876L165.865 5.02588H172.091L145.144 37.5866H140.008ZM155.534 21.2286L159.581 17.2701L172.558 37.5866H165.982L155.534 21.2286Z" fill="#2F2D31"/>
<path d="M198.143 5.02588L213.805 37.5866H207.677L193.434 7.19918H195.652L181.41 37.5866H175.282L190.944 5.02588H198.143ZM182.986 30.1159V25.3812H205.789V30.1159H182.986Z" fill="#2F2D31"/>
<path d="M102.476 13.6025V21.9076C101.212 23.1883 99.8691 24.469 98.4683 25.6915C92.9427 30.5038 86.9891 34.2101 81.6969 36.1505C79.0703 37.1207 76.6967 37.6059 74.6148 37.6059C73.2529 37.6059 72.0272 37.3924 70.9571 36.9655C69.887 36.5386 68.992 35.9177 68.2721 35.1027C65.7233 32.192 66.0152 27.4185 69.0698 21.6942C71.0543 17.9685 74.109 13.9906 77.8835 10.1873L78.0975 9.97388H86.0552L84.7516 11.1381C84.4792 11.3904 84.129 11.7009 83.8566 11.9531C79.4984 15.9699 75.9573 20.3359 73.8755 24.2362C71.8131 28.0977 71.638 30.6979 72.3774 31.5517C73.1167 32.4055 75.7239 32.5801 79.8486 31.0666C84.5181 29.359 89.9075 26.0214 94.9272 21.5972C97.5149 19.288 100.161 16.3968 102.476 13.6025Z" fill="#2F2D31"/>
<path d="M84.46 6.79157C86.3405 6.79157 87.8649 5.27122 87.8649 3.39578C87.8649 1.52034 86.3405 0 84.46 0C82.5796 0 81.0552 1.52034 81.0552 3.39578C81.0552 5.27122 82.5796 6.79157 84.46 6.79157Z" fill="#2F2D31"/>
</g>
<defs>
<clipPath id="clip0_77_667">
<rect width="214" height="58" fill="white"/>
</clipPath>
</defs>
</svg>
