<svg width="215" height="58" viewBox="0 0 215 58" fill="none" xmlns="http://www.w3.org/2000/svg">
<path d="M37.8771 24.3022C37.6046 27.1028 36.6054 29.542 34.9704 31.7103C33.3354 33.8785 31.1555 35.5047 28.4305 36.6791C25.7964 37.8536 22.7081 38.486 19.2564 38.486C15.4415 38.486 12.0807 37.7632 9.17406 36.2274C6.26743 34.7819 3.99662 32.704 2.45247 29.9938C0.817491 27.3738 0.0908327 24.3022 0.0908327 20.7788C0.0908327 17.2554 0.908323 14.1838 2.5433 11.5639C4.08745 8.94392 6.35826 6.86604 9.26489 5.42055C12.1715 3.97507 15.5323 3.16199 19.3473 3.16199C22.7989 3.16199 25.7964 3.79439 28.5213 4.96884C31.1555 6.1433 33.3354 7.76946 35.0613 9.93769C36.6962 12.0156 37.6954 14.5452 37.9679 17.3458H31.8821C31.5188 15.5389 30.7921 14.0031 29.7022 12.648C28.6122 11.3832 27.1589 10.2991 25.433 9.66666C23.7072 8.94392 21.6181 8.58255 19.3473 8.58255C16.7131 8.58255 14.3515 9.1246 12.3532 10.1184C10.3549 11.1121 8.90156 12.5576 7.81158 14.3645C6.72159 16.1713 6.1766 18.4299 6.1766 20.8692C6.1766 23.3987 6.72159 25.567 7.81158 27.3738C8.90156 29.1807 10.3549 30.6262 12.3532 31.6199C14.3515 32.6137 16.6223 33.1558 19.3473 33.1558C21.6181 33.1558 23.7072 32.7944 25.433 32.0716C27.1589 31.3489 28.6122 30.3551 29.7022 29.0903C30.7921 27.7352 31.5188 26.1994 31.8821 24.3925H37.8771V24.3022Z" fill="#2C2A2F"/>
<path d="M75.6633 3.7944V37.8536H69.6684V6.41434L72.3933 9.12462H45.3253L48.0503 6.41434V37.8536H42.0553V3.7944H75.6633Z" fill="#2C2A2F"/>
<path d="M139.246 37.8536V3.7944H145.241V32.7944L143.424 31.6199L166.314 3.7944H172.854L144.605 37.8536H139.246ZM155.596 20.6885L159.865 16.5327L173.49 37.7633H166.586L155.596 20.6885Z" fill="#2C2A2F"/>
<path d="M198.105 3.7944L214.546 37.8536H208.097L193.2 6.05297H195.562L180.665 37.8536H174.216L190.657 3.7944H198.105ZM182.21 29.9938V25.0249H206.189V29.9938H182.21Z" fill="#2C2A2F"/>
<path d="M124.44 3.7944C124.44 3.7944 116.538 15.539 108.817 22.3147C103.64 26.9221 98.008 30.3552 93.1939 32.0717C88.9248 33.6075 86.1998 33.4268 85.4732 32.5234C84.6557 31.6199 84.8374 29 87.0173 24.9346C89.1973 20.8692 92.8306 16.352 97.3722 12.1963C97.6447 11.9252 98.008 11.5639 98.2805 11.3832L99.643 10.2087H91.3773L91.1048 10.4798C87.199 14.4548 84.1107 18.6106 82.0216 22.4953C78.8424 28.458 78.5699 33.3365 81.2041 36.4081C82.6574 38.1246 84.9282 39.028 87.8348 39.028C90.0148 39.028 92.4673 38.486 95.1922 37.4922C100.642 35.5047 106.91 31.6199 112.632 26.6511C118.173 21.7726 122.805 16.352 125.621 11.3832L131.071 3.88475H124.44V3.7944Z" fill="#2C2A2F"/>
<path d="M125.076 3.7944V9.12462H125.167V37.8536H131.162V3.7944H125.076Z" fill="#2C2A2F"/>
<path d="M98.008 7.04673C99.9645 7.04673 101.55 5.46927 101.55 3.52336C101.55 1.57746 99.9645 0 98.008 0C96.0516 0 94.4656 1.57746 94.4656 3.52336C94.4656 5.46927 96.0516 7.04673 98.008 7.04673Z" fill="#2C2A2F"/>
<path d="M4.17828 56.1932C3.26996 56.1932 2.5433 56.0125 1.90748 55.6511C1.27165 55.2897 0.817491 54.7477 0.454161 54.1153C0.181665 53.3022 0 52.4891 0 51.5857C0 50.1402 0.363329 48.9657 1.08999 48.1527C1.81665 47.3396 2.8158 46.8879 4.17828 46.7072C4.72328 46.7072 5.08661 46.6168 5.44994 46.6168C5.81327 46.6168 6.08576 46.5265 6.26743 46.5265C6.44909 46.5265 6.72159 46.4361 6.81242 46.4361C6.99409 46.4361 7.08492 46.3458 7.26658 46.2555V46.9782C7.17575 47.0685 6.90325 47.0685 6.72159 47.1589C6.44909 47.2492 6.1766 47.2492 5.72243 47.3396C5.3591 47.3396 4.81411 47.4299 4.26912 47.4299C3.0883 47.5203 2.17997 47.8816 1.54415 48.6044C0.908323 49.3271 0.635826 50.3209 0.635826 51.5857V52.1277H0.544994C0.726658 51.5857 1.08999 51.134 1.45332 50.6823C1.81665 50.2305 2.27081 50.0499 2.72497 49.7788C3.17913 49.5981 3.72412 49.5078 4.35995 49.5078C5.08661 49.5078 5.72243 49.6885 6.26743 49.9595C6.81242 50.2305 7.26658 50.5919 7.53908 51.134C7.81158 51.676 7.99324 52.2181 7.99324 52.8505C7.99324 53.4829 7.81158 54.1153 7.53908 54.6573C7.26658 55.1994 6.81242 55.5608 6.26743 55.8318C5.54077 56.0125 4.90494 56.1932 4.17828 56.1932ZM4.17828 55.5608C4.81411 55.5608 5.26827 55.4704 5.72243 55.1994C6.1766 54.9284 6.53992 54.6573 6.81242 54.296C7.08492 53.9346 7.17575 53.3925 7.17575 52.8505C7.17575 52.3084 7.08492 51.8567 6.81242 51.405C6.53992 50.9533 6.1766 50.6823 5.72243 50.5016C5.26827 50.3209 4.72328 50.1402 4.17828 50.1402C3.36079 50.1402 2.63414 50.3209 2.08914 50.7726C1.45332 51.2243 1.08999 51.8567 0.726658 52.6698C0.908323 53.5732 1.27165 54.296 1.90748 54.7477C2.5433 55.2897 3.26996 55.5608 4.17828 55.5608Z" fill="#2C2A2F"/>
<path d="M13.4432 49.0561H19.6198V56.0125H18.9839V49.4175L19.2564 49.6885H13.8973L14.1698 49.5078C14.2607 50.0499 14.2607 50.5919 14.2607 51.134C14.2607 51.676 14.2607 52.1277 14.2607 52.5795C14.2607 53.8443 14.079 54.7477 13.8065 55.3801C13.4432 55.9221 12.989 56.2835 12.2624 56.2835C12.0807 56.2835 11.899 56.2835 11.8082 56.1932C11.6265 56.1932 11.4449 56.1028 11.354 56.0125V55.3801C11.5357 55.4704 11.6265 55.4704 11.8082 55.5608C11.9899 55.5608 12.0807 55.6511 12.2624 55.6511C12.8074 55.6511 13.1707 55.3801 13.3523 54.9284C13.6248 54.4767 13.7157 53.6636 13.7157 52.5795C13.7157 52.1277 13.7157 51.676 13.7157 51.0436C13.6248 50.3209 13.534 49.6885 13.4432 49.0561Z" fill="#2C2A2F"/>
<path d="M31.7913 52.5794C31.6096 53.3022 31.3371 53.9346 30.883 54.4766C30.5196 55.0187 30.0655 55.4704 29.5205 55.7414C28.9755 56.0125 28.4305 56.1931 27.7947 56.1931C27.1589 56.1931 26.523 56.0125 25.978 55.7414C25.433 55.4704 25.0697 55.0187 24.7064 54.4766C24.4339 53.9346 24.2522 53.3022 24.2522 52.5794C24.2522 51.8567 24.4339 51.2243 24.7064 50.6822C24.9789 50.1402 25.433 49.6885 25.978 49.4174C26.523 49.1464 27.068 48.9657 27.7947 48.9657C28.4305 48.9657 29.0663 49.1464 29.5205 49.4174C30.0655 49.6885 30.5196 50.1402 30.883 50.6822C31.3371 51.2243 31.6096 51.8567 31.7913 52.5794ZM24.9789 52.5794C24.9789 53.1215 25.0697 53.6635 25.3422 54.1153C25.6147 54.567 25.8872 54.9283 26.3414 55.1994C26.7955 55.4704 27.2497 55.5607 27.7947 55.5607C28.3397 55.5607 28.8847 55.4704 29.3388 55.1994C29.793 54.9283 30.1563 54.567 30.5196 54.1153C30.883 53.6635 31.1555 53.1215 31.428 52.5794C31.1555 51.947 30.883 51.4953 30.5196 51.0436C30.1563 50.5919 29.793 50.2305 29.3388 49.9595C28.8847 49.6885 28.3397 49.5981 27.7947 49.5981C27.2497 49.5981 26.7955 49.6885 26.3414 49.9595C25.8872 50.2305 25.6147 50.5919 25.3422 51.0436C25.0697 51.405 24.9789 51.947 24.9789 52.5794ZM31.428 56.0125L31.2463 53.3925L31.5188 52.5794L31.2463 51.7664L31.428 49.1464H32.0638L31.7913 52.5794L32.0638 56.0125H31.428Z" fill="#2C2A2F"/>
<path d="M41.9645 49.0561V49.6885H37.4229L37.6954 49.4175V56.0125H37.0596V49.0561H41.9645Z" fill="#2C2A2F"/>
<path d="M49.3219 56.1931C48.5044 56.1931 47.8686 56.0125 47.2328 55.7414C46.597 55.4704 46.1428 55.0187 45.7795 54.4766C45.4161 53.9346 45.2345 53.3022 45.2345 52.5794C45.2345 51.8567 45.4161 51.2243 45.7795 50.6822C46.1428 50.1402 46.597 49.6885 47.2328 49.4174C47.8686 49.1464 48.5044 48.9657 49.3219 48.9657C50.1394 48.9657 50.7752 49.1464 51.4111 49.4174C52.0469 49.6885 52.5011 50.1402 52.8644 50.6822C53.2277 51.2243 53.4094 51.8567 53.4094 52.5794C53.4094 53.3022 53.2277 53.9346 52.8644 54.4766C52.5011 55.0187 52.0469 55.4704 51.4111 55.7414C50.7752 56.0125 50.0486 56.1931 49.3219 56.1931ZM49.3219 55.5607C49.9578 55.5607 50.5936 55.4704 51.0477 55.1994C51.5019 54.9283 51.9561 54.567 52.2286 54.2056C52.5011 53.7539 52.6827 53.2118 52.6827 52.6698C52.6827 52.0374 52.5011 51.5857 52.2286 51.134C51.9561 50.6822 51.5927 50.3209 51.0477 50.1402C50.5936 49.8692 49.9578 49.7788 49.3219 49.7788C48.6861 49.7788 48.0503 49.8692 47.5961 50.1402C47.0511 50.4112 46.6878 50.7726 46.4153 51.134C46.1428 51.5857 45.9611 52.1277 45.9611 52.6698C45.9611 53.3022 46.1428 53.7539 46.4153 54.2056C46.6878 54.6573 47.0511 55.0187 47.5961 55.1994C48.0503 55.3801 48.5953 55.5607 49.3219 55.5607Z" fill="#2C2A2F"/>
<path d="M65.8534 55.3801V57.8193H65.2176V56.0125H57.3152V57.8193H56.6793V55.3801H57.951H58.2235H64.0368H64.3093H65.8534ZM58.4052 49.0561H64.4909V55.7415H63.8551V49.3271L64.1276 49.5981H58.7685L59.041 49.4175C59.041 49.7788 59.1318 50.1402 59.1318 50.5919C59.1318 50.9533 59.1318 51.3147 59.1318 51.676C59.1318 52.9408 59.041 53.9346 58.7685 54.6573C58.496 55.3801 58.1327 55.7415 57.7693 55.7415L57.4968 55.4704C58.2235 54.9284 58.5868 53.5732 58.5868 51.4953C58.5868 51.134 58.5868 50.6823 58.5868 50.2305C58.4052 49.9595 58.4052 49.5078 58.4052 49.0561Z" fill="#2C2A2F"/>
<path d="M70.4858 47.8816C70.3042 47.8816 70.1225 47.7913 70.0317 47.7009C69.9409 47.6106 69.85 47.4299 69.85 47.2492C69.85 47.0685 69.9409 46.9782 70.0317 46.7975C70.1225 46.7072 70.3042 46.6168 70.4858 46.6168C70.6675 46.6168 70.8492 46.7072 70.94 46.7975C71.0308 46.8879 71.1217 47.0685 71.1217 47.2492C71.1217 47.4299 71.0308 47.5202 70.94 47.7009C70.7583 47.8816 70.6675 47.8816 70.4858 47.8816ZM70.1225 49.0561L70.4858 49.1464L70.8492 49.0561V56.0125H70.2134V49.0561H70.1225Z" fill="#2C2A2F"/>
<path d="M75.845 56.0125V49.0561H76.4808V55.7414H76.1175L82.0216 49.0561H82.9299V56.0125H82.294V49.3271H82.6574L76.7533 56.0125H75.845ZM79.2966 48.243C78.6608 48.243 78.2066 48.0623 77.7524 47.7009C77.3891 47.3396 77.1166 46.8879 77.0258 46.2555H77.6616C77.7524 46.7072 77.9341 46.9782 78.2066 47.2492C78.4791 47.5203 78.8424 47.6106 79.2057 47.6106C79.6599 47.6106 79.9324 47.5203 80.2049 47.2492C80.4774 46.9782 80.6591 46.7072 80.7499 46.2555H81.3857C81.2949 46.8879 81.1132 47.3396 80.6591 47.7009C80.3866 48.1527 79.9324 48.243 79.2966 48.243Z" fill="#2C2A2F"/>
<path d="M88.0165 49.0561H88.6523V56.0125H88.0165V49.0561ZM88.3798 52.2181H94.4656V52.8505H88.3798V52.2181ZM94.1022 49.0561H94.7381V56.0125H94.1022V49.0561Z" fill="#2C2A2F"/>
<path d="M99.8247 56.0125V49.0561H100.46V55.7415H100.097L106.001 49.0561H106.91V56.0125H106.274V49.3271H106.637L100.733 56.0125H99.8247Z" fill="#2C2A2F"/>
<path d="M111.996 56.0125V49.0561H112.632V55.7414H112.269L118.173 49.0561H119.081V56.0125H118.445V49.3271H118.809L112.905 56.0125H111.996ZM115.448 48.243C114.812 48.243 114.358 48.0623 113.904 47.7009C113.54 47.3396 113.268 46.8879 113.177 46.2555H113.813C113.904 46.7072 114.085 46.9782 114.358 47.2492C114.63 47.5203 114.994 47.6106 115.357 47.6106C115.811 47.6106 116.084 47.5203 116.356 47.2492C116.629 46.9782 116.81 46.7072 116.901 46.2555H117.537C117.446 46.8879 117.264 47.3396 116.81 47.7009C116.538 48.1527 116.084 48.243 115.448 48.243Z" fill="#2C2A2F"/>
<path d="M171.037 52.5795C170.856 53.3022 170.583 53.9346 170.22 54.4766C169.856 55.0187 169.402 55.4704 168.857 55.7414C168.312 56.0125 167.767 56.1932 167.131 56.1932C166.496 56.1932 165.86 56.0125 165.315 55.7414C164.77 55.4704 164.406 55.0187 164.134 54.4766C163.861 53.9346 163.68 53.3022 163.68 52.5795C163.68 51.8567 163.861 51.2243 164.134 50.6823C164.406 50.1402 164.861 49.6885 165.315 49.4175C165.86 49.1464 166.405 48.9657 167.131 48.9657C167.767 48.9657 168.312 49.1464 168.857 49.4175C169.402 49.6885 169.856 50.1402 170.22 50.6823C170.492 51.2243 170.856 51.8567 171.037 52.5795ZM164.406 52.5795C164.406 53.1215 164.497 53.6636 164.77 54.1153C165.042 54.567 165.315 54.9284 165.769 55.1994C166.223 55.4704 166.677 55.5608 167.222 55.5608C168.04 55.5608 168.766 55.2897 169.311 54.7477C169.856 54.2056 170.401 53.4829 170.765 52.5795C170.401 51.676 169.947 50.9533 169.311 50.4112C168.766 49.8692 168.04 49.5981 167.222 49.5981C166.677 49.5981 166.223 49.6885 165.769 49.9595C165.315 50.2305 165.042 50.5919 164.77 51.0436C164.497 51.405 164.406 51.9471 164.406 52.5795ZM170.583 58V53.4829L170.674 52.7601V52.2181L170.583 51.4953V46.5265H171.219V51.4953L171.128 52.2181V52.7601L171.219 53.4829V58H170.583ZM170.765 52.5795C170.946 51.8567 171.219 51.2243 171.582 50.6823C171.945 50.1402 172.4 49.6885 172.945 49.4175C173.49 49.1464 174.035 48.9657 174.67 48.9657C175.306 48.9657 175.942 49.1464 176.487 49.4175C177.032 49.6885 177.395 50.1402 177.668 50.6823C177.94 51.2243 178.122 51.8567 178.122 52.5795C178.122 53.3022 177.94 53.9346 177.668 54.4766C177.395 55.0187 176.941 55.4704 176.487 55.7414C175.942 56.0125 175.397 56.1932 174.67 56.1932C174.035 56.1932 173.49 56.0125 172.945 55.7414C172.4 55.4704 171.945 55.0187 171.582 54.4766C171.31 53.9346 170.946 53.3022 170.765 52.5795ZM177.395 52.5795C177.395 51.9471 177.305 51.4953 177.032 51.0436C176.76 50.5919 176.487 50.2305 176.033 49.9595C175.579 49.6885 175.125 49.5981 174.58 49.5981C173.762 49.5981 173.126 49.8692 172.49 50.4112C171.945 50.9533 171.401 51.676 171.037 52.5795C171.401 53.4829 171.855 54.2056 172.49 54.7477C173.035 55.2897 173.762 55.5608 174.58 55.5608C175.125 55.5608 175.579 55.4704 176.033 55.1994C176.487 54.9284 176.76 54.567 177.032 54.1153C177.305 53.6636 177.395 53.1215 177.395 52.5795Z" fill="#2C2A2F"/>
<path d="M186.388 56.1931C185.57 56.1931 184.935 56.0125 184.299 55.7414C183.663 55.4704 183.209 55.0187 182.845 54.4766C182.482 53.9346 182.3 53.3022 182.3 52.5794C182.3 51.8567 182.482 51.2243 182.845 50.6822C183.209 50.1402 183.663 49.6885 184.299 49.4174C184.935 49.1464 185.57 48.9657 186.388 48.9657C187.205 48.9657 187.841 49.1464 188.477 49.4174C189.113 49.6885 189.567 50.1402 189.93 50.6822C190.294 51.2243 190.475 51.8567 190.475 52.5794C190.475 53.3022 190.294 53.9346 189.93 54.4766C189.567 55.0187 189.113 55.4704 188.477 55.7414C187.841 56.0125 187.114 56.1931 186.388 56.1931ZM186.388 55.5607C187.024 55.5607 187.659 55.4704 188.114 55.1994C188.568 54.9283 189.022 54.567 189.294 54.2056C189.567 53.7539 189.749 53.2118 189.749 52.6698C189.749 52.0374 189.658 51.5857 189.294 51.134C189.022 50.6822 188.659 50.3209 188.114 50.1402C187.659 49.8692 187.024 49.7788 186.388 49.7788C185.752 49.7788 185.116 49.8692 184.662 50.1402C184.117 50.4112 183.754 50.7726 183.481 51.134C183.209 51.5857 183.027 52.1277 183.027 52.6698C183.027 53.3022 183.209 53.7539 183.481 54.2056C183.754 54.6573 184.117 55.0187 184.662 55.1994C185.116 55.3801 185.661 55.5607 186.388 55.5607Z" fill="#2C2A2F"/>
<path d="M195.017 49.0561H195.653V56.0125H195.017V49.0561ZM195.38 52.2181H201.466V52.8505H195.38V52.2181ZM201.103 49.0561H201.738V56.0125H201.103V49.0561Z" fill="#2C2A2F"/>
<path d="M215 55.3801V57.8193H214.364V56.0125H206.462V57.8193H205.826V55.3801H207.098H207.37H213.183H213.456H215ZM207.552 49.0561H213.728V55.7415H213.093V49.3271L213.365 49.5981H208.006L208.278 49.4175C208.278 49.7788 208.369 50.1402 208.369 50.5919C208.369 50.9533 208.369 51.3147 208.369 51.676C208.369 52.9408 208.278 53.9346 208.006 54.6573C207.733 55.3801 207.37 55.7415 207.007 55.7415L206.734 55.4704C207.461 54.9284 207.824 53.5732 207.824 51.4953C207.824 51.134 207.824 50.6823 207.824 50.2305C207.643 49.9595 207.552 49.5078 207.552 49.0561Z" fill="#2C2A2F"/>
</svg>
