<svg width="65" height="37" viewBox="0 0 65 37" fill="none" xmlns="http://www.w3.org/2000/svg">
<g clip-path="url(#clip0_381_33)">
<path d="M8.47765 26.5115H6.63408L2.63966 30.9001L1.36872 31.7696V26.5115H0V37.0001H1.36872V33.3981L2.91899 32.3354L7.2486 37.0001H9.07821L4.00838 31.4384L8.47765 26.5115Z" fill="#1D5E52"/>
<path d="M32.6676 35.6476H28.3799V26.5115H27.0112V35.6476H22.7374V26.5115H21.3687V37.0001H34.0363V26.5115H32.6676V35.6476Z" fill="#1D5E52"/>
<path d="M63.6313 26.5115V32.1008L57.8212 29.6305V26.5115H56.4525V37.0001H57.8212V32.3216V31.1071L63.6313 33.5775V37.0001H65V26.5115H63.6313Z" fill="#1D5E52"/>
<path d="M44.581 26.5254H35.9357V27.8641H39.581V37.0002H40.9497V27.8641H44.581V26.5254Z" fill="#1D5E52"/>
<path d="M15.852 26.5254H14.8045H13.757L9.69275 37.0002H11.1732L12.2486 34.2953H14.8045H17.3743L18.4497 37.0002H19.9162L15.852 26.5254ZM14.8045 32.9566H12.7514L14.8045 27.6157L16.8576 32.9566H14.8045Z" fill="#1D5E52"/>
<path d="M50.6983 26.5254H49.6509H48.6034L44.5391 37.0002H46.0056L47.081 34.2953H49.6509H52.2207L53.2961 37.0002H54.7626L50.6983 26.5254ZM49.6509 32.9566H47.5978L49.6509 27.6157L51.7039 32.9566H49.6509Z" fill="#1D5E52"/>
<path d="M30.9637 21.1428C30.7262 21.1014 30.3631 21.2532 30.3073 20.7978C29.6089 20.6874 29.3994 20.0664 29.0503 19.6109C28.6732 19.1279 28.6592 18.1757 29.176 17.6926C29.9302 16.9888 30.6145 16.2159 31.1732 15.3465C31.5363 14.7807 31.9413 14.2424 32.2626 13.649C32.2765 13.6214 32.2905 13.58 32.3184 13.5662C32.7235 13.2488 32.8492 12.7105 33.2402 12.4069C33.9525 11.8687 34.2877 11.0268 34.9162 10.461C35.2793 10.1436 35.419 9.71576 35.6983 9.37074C35.8938 9.13613 36.0475 8.86011 36.2011 8.59789C36.3128 8.43228 36.4246 8.26667 36.6341 8.22527C36.7737 8.19767 36.7877 8.08726 36.8156 8.00446C37.081 7.45242 37.3603 6.92799 37.8212 6.51397C37.9888 6.36216 37.8073 6.21035 37.9469 6.05854C38.1564 5.82393 38.2682 5.52031 38.4357 5.24429C38.4776 5.16149 38.5754 5.07868 38.4637 4.98208C38.4497 4.96828 38.4357 4.91307 38.4497 4.89927C38.5754 4.69226 39.0782 4.59566 39.3017 4.74746C39.3855 4.80267 39.4274 4.89927 39.5531 4.91307C40.3352 5.06488 40.7821 5.58931 41.1592 6.25175C41.3827 6.65198 41.648 7.0108 41.7039 7.46623C41.7598 7.99066 41.7458 8.57029 41.2849 8.87391C40.9637 9.08092 40.7961 9.42594 40.4749 9.57775C40.1397 9.71576 40.014 10.0194 39.9302 10.2816C39.8464 10.5576 39.7905 10.806 39.5391 10.9854C39.2039 11.22 39.2039 11.6341 39.0084 11.9377C38.9665 12.0205 38.9525 12.1447 38.8966 12.1723C38.4776 12.3379 38.3799 12.7519 38.2123 13.0832C38.0447 13.4282 37.7095 13.6214 37.5279 13.9526C37.1648 14.6151 36.6899 15.1947 36.2011 15.7743C35.9637 16.0641 35.8101 16.423 35.5866 16.7266C35.405 16.9888 35.2654 17.3062 34.986 17.4994C34.8603 17.5822 34.9302 17.7064 34.8883 17.8168C34.6648 18.3413 34.3296 18.7967 33.9525 19.2383C33.743 19.5005 33.5475 19.7904 33.4078 20.094C33.2123 20.5494 32.8492 20.784 32.4162 20.922C31.9274 21.06 31.4804 21.1842 30.9637 21.1428ZM29.7626 18.6587C29.7626 18.8243 29.8184 18.9347 29.8883 19.0313C30.0838 19.3349 30.3212 19.5971 30.5447 19.8732C30.6983 20.0526 30.8799 20.1216 31.0754 20.2182C31.4385 20.3838 31.6899 20.094 31.9832 20.0526C32.2905 20.0112 32.4162 19.818 32.486 19.5419C32.514 19.4177 32.5419 19.2659 32.6536 19.1831C32.6955 19.1417 32.7374 19.1555 32.6397 19.1003C32.3464 18.9209 32.2486 18.6173 32.2765 18.2999C32.3045 18.0101 32.1229 17.7478 31.8575 17.6512C31.1732 17.3752 30.6564 17.7754 30.1257 18.0515C29.9302 18.1481 29.8045 18.4241 29.7626 18.6587Z" fill="#1D5E52"/>
<path d="M30.838 5.76877C30.6285 5.81018 30.419 5.75497 30.1955 5.78257C29.6788 5.86538 29.4134 6.2242 29.2458 6.62442C28.9944 7.23166 28.6313 7.72849 28.1844 8.18392C27.7374 8.63934 27.0391 8.39093 26.7877 7.72849C26.4665 6.88664 26.9413 6.36221 27.4721 5.85158C27.8492 5.49276 28.3101 5.23054 28.8129 5.05113C29.2179 4.89932 29.581 4.08507 29.1201 3.68485C28.9525 3.54684 28.7291 3.53304 28.5615 3.38123C27.9469 2.8154 27.1369 2.74639 26.3548 2.73259C26.0894 2.71879 25.7961 2.8844 25.5028 2.9258C25.3911 2.93961 25.2933 3.09141 25.3492 3.28463C25.5307 3.90566 25.3492 4.4715 24.8883 4.91312C24.7346 5.05113 24.7067 5.23054 24.595 5.38235C24.2458 5.82398 23.771 6.03099 23.2402 6.1828C22.919 6.2794 22.0531 5.81018 21.9553 5.53416C21.8156 5.14774 22.0531 4.26448 22.3743 3.98847C22.4022 3.96087 22.4441 3.96087 22.4581 3.93326C22.7933 3.32603 23.3799 2.96721 23.8687 2.51178C23.9804 2.40137 23.9944 2.34617 23.8967 2.18056C23.4637 1.49052 22.8492 1.2145 22.0531 1.1731C21.8017 1.1593 21.5084 1.2559 21.257 1.1041C21.2151 1.07649 21.1173 1.1041 21.1034 1.1317C21.0056 1.28351 20.824 1.28351 20.6983 1.26971C20.1257 1.2145 19.7207 1.57332 19.2318 1.73893C19.1341 1.76654 19.0503 1.86314 18.9804 1.95975C18.8687 2.11156 18.324 2.16676 18.2123 2.07015C18.0726 1.94595 18.0726 1.53192 18.2123 1.35251C18.6453 0.800478 19.2318 0.49686 19.8883 0.276047C20.7402 3.01986e-05 21.6341 -0.0827747 22.5 0.0690343C23.0168 0.16564 23.6173 0.234644 23.9246 0.786677C23.9386 0.814279 23.9805 0.855681 23.9944 0.855681C24.4274 0.759075 24.5251 1.1593 24.7067 1.36631C25.0698 1.79414 24.9581 1.94595 25.7542 1.72513C26.2011 1.60093 26.6899 1.60093 27.1788 1.69753C27.6816 1.79414 28.1704 1.95975 28.6453 2.13916C29.2318 2.35997 29.7765 2.66359 30.1816 3.13282C30.4609 3.45024 30.3631 3.89186 30.3352 4.26448C30.3073 4.6095 30.3631 4.74751 30.7123 4.67851C31.2989 4.5681 31.8575 4.70611 32.4162 4.80272C32.7235 4.85792 33.0587 5.00973 33.2682 5.23054C33.5056 5.46516 33.5475 5.83778 33.5754 6.1828C33.6173 6.59682 33.6732 7.01085 33.352 7.38347C33.2402 7.50768 33.4358 7.8251 33.6313 7.81129C34.4693 7.76989 35 8.36333 35.6145 8.76355C35.7402 8.84636 35.7821 9.05337 35.6983 9.13617C35.4749 9.32938 35.419 9.67441 35.0559 9.75721C34.8603 9.79861 34.7486 9.78481 34.6508 9.6468C34.3994 9.32938 34.0642 9.13617 33.6872 8.98436C33.2402 8.81875 32.8631 9.13617 32.7933 9.6054C32.7095 10.1574 32.4581 10.6405 31.9274 10.9579C31.3967 11.2753 30.8659 11.1511 30.3631 10.9717C30 10.8337 29.8743 10.047 30.1816 9.74341C30.7402 9.21898 31.2011 8.57034 31.8436 8.12871C32.095 7.9631 32.3324 7.8389 32.3743 7.50768C32.4441 7.06605 32.5698 6.62442 32.3464 6.1828C32.2765 6.03099 32.1788 5.90678 32.0391 5.89298C31.648 5.87918 31.271 5.67217 30.838 5.76877ZM24.4134 3.35363C23.8408 3.58824 23.4777 4.00227 23.1425 4.4577C23.1006 4.5129 23.0726 4.5819 23.0028 4.5819C22.8771 4.5957 22.7374 4.6095 22.7933 4.76131C22.8631 4.91312 22.7654 5.16154 23.0447 5.23054C23.338 5.29955 23.9386 5.02353 24.162 4.70611C24.4274 4.29209 24.4693 3.85046 24.4134 3.35363ZM28.3101 6.51402C28.0028 6.59682 28.0168 6.90044 27.8352 7.05225C27.7514 7.12125 27.7095 7.25926 27.8073 7.31447C27.8911 7.36967 28.0028 7.28686 28.0447 7.19026C28.1564 6.98325 28.2682 6.77623 28.3101 6.51402ZM31.3687 10.0746C31.3548 10.1298 31.3548 10.2264 31.4804 10.2126C31.7039 10.1988 31.7179 9.97802 31.7877 9.82621C31.8436 9.70201 31.7458 9.68821 31.6341 9.67441C31.3548 9.6606 31.4106 9.86762 31.3687 10.0746Z" fill="#1D5E52"/>
</g>
<defs>
<clipPath id="clip0_381_33">
<rect width="65" height="37" fill="white"/>
</clipPath>
</defs>
</svg>
