<svg width="80" height="61" viewBox="0 0 80 61" fill="none" xmlns="http://www.w3.org/2000/svg">
<path d="M13.0572 36.6548L23.4751 45.2518C29.6647 49.1496 32.6938 48.3832 37.8333 45.2518L55.9028 37.4499C51.9936 46.449 47.7535 47.6202 37.8333 45.2518C32.6938 48.3832 29.6647 49.1496 23.4751 45.2518C16.0525 48.4834 13.0572 36.6548 13.0572 36.6548Z" fill="#F1EFE7"/>
<path d="M4.13113 23.2825V24.7961C4.13113 27.6414 5.40201 30.3378 7.5965 32.1486L23.4751 45.2518M23.4751 45.2518C29.6647 49.1496 32.6938 48.3832 37.8333 45.2518M23.4751 45.2518C16.0525 48.4834 13.0572 36.6548 13.0572 36.6548M37.8333 45.2518C47.7535 47.6202 51.9936 46.449 55.9028 37.4499M37.8333 45.2518L55.9028 37.4499M55.9028 37.4499C71.2303 35.0455 71.5878 30.7593 72.6978 23.2825" stroke="#004BAC" stroke-width="0.934579"/>
<path d="M3.34388 29.8413C2.25306 30.2832 1.56467 30.6817 1.27678 31.0744C-0.651236 33.7051 2.11459 37.8346 4.5685 39.9828C6.59016 41.7529 9.20865 42.806 10.9842 44.8226C11.2495 45.1239 11.5483 45.3798 11.8872 45.5955C14.0978 47.0026 16.1954 48.6565 18.289 50.2324C18.8035 50.6196 19.365 50.8114 19.994 50.8497C22.8617 51.0241 25.7548 50.7596 28.4478 51.7602C28.7617 51.8768 29.0613 51.974 29.348 52.052C33.1563 53.0877 37.4224 50.4395 41.3043 51.151C46.8482 52.1673 49.8123 51.8256 50.9506 49.3195C51.4873 48.1378 51.9755 46.8914 52.9409 46.0239L53.2295 45.7647C54.9355 44.232 57.9508 45.6895 59.5103 44.0081C60.9503 42.4555 61.9553 40.2611 64.0277 39.8256C64.669 39.6909 65.2465 39.5516 65.7602 39.4026C68.4897 38.611 71.3837 35.5424 74.0002 34.4331M74.0002 34.4331C76.5376 33.3572 79.0168 29.7269 79.4202 27.0004C79.6622 25.3654 77.597 23.2967 72.9602 21.158M74.0002 34.4331C75.8886 41.8107 71.7832 45.1499 55.7131 49.5292C55.2463 49.6563 54.7807 49.8191 54.3379 50.0138L35.043 58.5052C32.2925 59.7157 29.1323 59.5583 26.5157 58.0808L11.3 49.4884C9.15385 48.2765 7.43289 46.2839 7.33725 43.821C7.32882 43.6038 7.32237 43.3735 7.31764 43.1273" stroke="#004BAC" stroke-width="0.934579"/>
<path d="M6.60566 21.3675L6.24276 21.5983C5.39506 22.1377 4.88171 23.0729 4.88171 24.0777C4.88171 24.3071 4.90859 24.5359 4.96179 24.7591L5.0231 25.0162C5.20153 25.7648 5.54422 26.4643 6.02637 27.0641L6.08134 27.1325C6.5785 27.8035 7.17162 28.3977 7.84168 28.8961L8.63057 29.4828L10.8424 30.7559L12.7168 31.9312L12.7911 31.9929C13.8396 32.8643 14.9555 33.6514 16.1283 34.3467L17.7028 35.3262L19.0149 36.2727L20.1396 37.0235L21.6766 37.9376L23.4011 38.8843L25.388 40.1247L27.1875 41.5611L27.6875 41.9019C28.4963 42.4529 29.4034 42.8432 30.3596 43.0514L30.5736 43.0979C30.9643 43.183 31.3628 43.2258 31.7624 43.2258C32.4553 43.2258 33.1419 43.097 33.7877 42.8462L34.2948 42.649C34.7043 42.4897 35.1009 42.2989 35.4809 42.0783L36.3721 41.5611L38.0217 40.5491L39.4462 39.7004L40.9456 38.8843L42.5577 37.9376L43.7948 37.0235L45.0695 36.2727L47.1688 35.3262L48.6293 34.6794C49.129 34.4581 49.6063 34.1895 50.0548 33.8772C50.6032 33.4951 51.1944 33.1787 51.8164 32.9346L52.7921 32.5514L54.4415 31.9312L56.0536 31.3762L56.8841 31.1013C57.5755 30.8725 58.2992 30.7559 59.0277 30.7559C59.4434 30.7559 59.8581 30.7179 60.2669 30.6424L62.1267 30.2989L63.8888 29.8419L64.357 29.7325C65.0682 29.5663 65.7643 29.3409 66.4379 29.0585C67.3084 28.6686 68.1202 28.1592 68.8499 27.545L68.8746 27.5243L69.1929 27.2662C69.7015 26.854 70.132 26.354 70.4641 25.7899C70.6288 25.5105 70.7682 25.2168 70.8809 24.9125L71.117 24.2757C71.3462 23.6568 71.5247 23.0204 71.6505 22.3725C71.7991 21.6086 71.8738 20.8321 71.8738 20.054V19.4613V17.1762C71.8738 16.3966 71.7647 15.6208 71.5495 14.8715L71.4613 14.5647L70.9923 13.3598C70.8056 12.88 70.5777 12.4171 70.3114 11.9765C70.0787 11.5915 69.8174 11.2247 69.5295 10.879L68.8746 10.0925L67.7501 8.91733L66.4379 7.80744L64.9759 6.43642L63.3263 5.09802L62.1267 4.24928L60.6271 3.36791C59.1103 2.52343 57.4815 1.89799 55.7891 1.5102L55.4912 1.44193L54.494 1.1305C53.2845 0.752715 52.0245 0.560547 50.7572 0.560547H48.3204C47.3348 0.560547 46.3505 0.637117 45.3766 0.789566L45.1714 0.821696L43.5594 1.14813L42.5577 1.44193C41.4845 1.87658 40.4445 2.38944 39.4462 2.97617L34.9101 6.43642L30.5989 10.0925L25.8377 13.3895L25.4991 13.58C23.7557 14.56 21.911 15.3481 19.9977 15.9304L19.0149 16.2295L12.192 18.8084L7.07476 21.1142C6.91254 21.1873 6.75577 21.2719 6.60566 21.3675Z" stroke="#004BAC" stroke-width="0.934579"/>
</svg>
